<svg viewBox="0 0 32 32" fill="none" xmlns="http://www.w3.org/2000/svg">
  <path d="M7 15C7 14.448 7.448 14 8 14C8.552 14 9 14.448 9 15V27C9 27.553 8.552 28 8 28C7.448 28 7 27.553 7 27V15ZM12 15C12 14.448 12.448 14 13 14C13.552 14 14 14.448 14 15V27C14 27.553 13.552 28 13 28C12.448 28 12 27.553 12 27V15ZM17 15C17 14.448 17.448 14 18 14C18.552 14 19 14.448 19 15V27C19 27.553 18.552 28 18 28C17.448 28 17 27.553 17 27V15ZM2 28C2 30.209 3.791 32 6 32H20C22.209 32 24 30.209 24 28V12H2V28ZM16 4H10V3C10 2.447 10.448 2 11 2H15C15.552 2 16 2.447 16 3V4ZM24 4H18V2C18 0.896 17.104 0 16 0H10C8.896 0 8 0.896 8 2V4H2C0.896 4 0 4.896 0 6V8C0 9.104 0.895 9.999 1.999 10H24.002C25.105 9.999 26 9.104 26 8V6C26 4.896 25.104 4 24 4Z" fill="#FFFFFF"/>
</svg>
