<svg viewBox="0 0 32 32" fill="none" xmlns="http://www.w3.org/2000/svg">
  <path d="M16 2C8.268 2 2 8.268 2 16C2 23.732 8.268 30 16 30C23.732 30 30 23.732 30 16C30 8.268 23.732 2 16 2ZM16 28C9.373 28 4 22.627 4 16C4 9.373 9.373 4 16 4C22.627 4 28 9.373 28 16C28 22.627 22.627 28 16 28Z" fill="#FFFFFF"/>
  <path d="M20.707 11.293C20.316 10.902 19.684 10.902 19.293 11.293L16 14.586L12.707 11.293C12.316 10.902 11.684 10.902 11.293 11.293C10.902 11.684 10.902 12.316 11.293 12.707L14.586 16L11.293 19.293C10.902 19.684 10.902 20.316 11.293 20.707C11.488 20.902 11.744 21 12 21C12.256 21 12.512 20.902 12.707 20.707L16 17.414L19.293 20.707C19.488 20.902 19.744 21 20 21C20.256 21 20.512 20.902 20.707 20.707C21.098 20.316 21.098 19.684 20.707 19.293L17.414 16L20.707 12.707C21.098 12.316 21.098 11.684 20.707 11.293Z" fill="#FFFFFF"/>
</svg>
