<?xml version="1.0" encoding="utf-8"?>
<!-- Generator: Adobe Illustrator 21.1.0, SVG Export Plug-In . SVG Version: 6.00 Build 0)  -->
<svg version="1.1" id="Layer_1" xmlns="http://www.w3.org/2000/svg" xmlns:xlink="http://www.w3.org/1999/xlink" x="0px" y="0px"
	 viewBox="0 0 32 32" style="enable-background:new 0 0 32 32;" xml:space="preserve">
<style type="text/css">
	.st0{fill:#00002D;}
</style>
<path class="st0" d="M9.4,15.1c0-0.5,0.5-0.9,1.1-0.9c0.6,0,1.1,0.4,1.1,0.9v11c0,0.5-0.5,0.9-1.1,0.9c-0.6,0-1.1-0.4-1.1-0.9V15.1z
	 M14.9,15.1c0-0.5,0.5-0.9,1.1-0.9c0.6,0,1.1,0.4,1.1,0.9v11c0,0.5-0.5,0.9-1.1,0.9c-0.6,0-1.1-0.4-1.1-0.9V15.1z M20.4,15.1
	c0-0.5,0.5-0.9,1.1-0.9c0.6,0,1.1,0.4,1.1,0.9v11c0,0.5-0.5,0.9-1.1,0.9c-0.6,0-1.1-0.4-1.1-0.9V15.1z M3.9,27c0,2,2,3.7,4.4,3.7
	h15.4c2.4,0,4.4-1.6,4.4-3.7V12.3H3.9V27z M19.3,5h-6.6V4.1c0-0.5,0.5-0.9,1.1-0.9h4.4c0.6,0,1.1,0.4,1.1,0.9V5z M28.1,5h-6.6V3.2
	c0-1-1-1.8-2.2-1.8h-6.6c-1.2,0-2.2,0.8-2.2,1.8V5H3.9C2.7,5,1.7,5.8,1.7,6.8v1.8c0,1,1,1.8,2.2,1.8h24.2c1.2,0,2.2-0.8,2.2-1.8V6.8
	C30.3,5.8,29.3,5,28.1,5z"/>
</svg>
