<?xml version="1.0" encoding="utf-8"?>
<!-- Generator: Adobe Illustrator 21.1.0, SVG Export Plug-In . SVG Version: 6.00 Build 0)  -->
<svg version="1.1" id="Layer_1" xmlns="http://www.w3.org/2000/svg" xmlns:xlink="http://www.w3.org/1999/xlink" x="0px" y="0px"
	 viewBox="0 0 32 32" style="enable-background:new 0 0 32 32;" xml:space="preserve">
<style type="text/css">
	.st0{fill:#00002D;}
</style>
<path class="st0" d="M27.4,11.8H4.6c-2.1,0-3.8,1.9-3.8,4.2s1.7,4.2,3.8,4.2h22.8c2.1,0,3.8-1.9,3.8-4.2S29.5,11.8,27.4,11.8z
	 M27.4,22.3H4.6c-2.1,0-3.8,1.9-3.8,4.2s1.7,4.2,3.8,4.2h22.8c2.1,0,3.8-1.9,3.8-4.2S29.5,22.3,27.4,22.3z M4.6,9.8h22.8
	c2.1,0,3.8-1.9,3.8-4.2s-1.7-4.2-3.8-4.2H4.6c-2.1,0-3.8,1.9-3.8,4.2S2.5,9.8,4.6,9.8z"/>
</svg>
