<svg viewBox="0 0 32 32" fill="none" xmlns="http://www.w3.org/2000/svg">
  <path d="M28 4H4C2.895 4 2 4.895 2 6V26C2 27.105 2.895 28 4 28H28C29.105 28 30 27.105 30 26V6C30 4.895 29.105 4 28 4ZM28 26H4V6H28V26Z" fill="#FFFFFF"/>
  <path d="M24 2H8C6.895 2 6 2.895 6 4V28C6 29.105 6.895 30 8 30H24C25.105 30 26 29.105 26 28V4C26 2.895 25.105 2 24 2ZM24 28H8V4H24V28Z" fill="#FFFFFF"/>
  <path d="M20 14H12C11.448 14 11 14.448 11 15V21C11 21.552 11.448 22 12 22H20C20.552 22 21 21.552 21 21V15C21 14.448 20.552 14 20 14ZM19 20H13V16H19V20Z" fill="#FFFFFF"/>
  <path d="M22 10L20 10L20 22C20 22.552 19.552 23 19 23H13C12.448 23 12 22.552 12 22V10H10C9.448 10 9 9.552 9 9C9 8.448 9.448 8 10 8H22C22.552 8 23 8.448 23 9C23 9.552 22.552 10 22 10Z" fill="#FFFFFF"/>
</svg>
