<?xml version="1.0" encoding="utf-8"?>
<!-- Generator: Adobe Illustrator 21.1.0, SVG Export Plug-In . SVG Version: 6.00 Build 0)  -->
<svg version="1.1" id="Layer_1" xmlns="http://www.w3.org/2000/svg" xmlns:xlink="http://www.w3.org/1999/xlink" x="0px" y="0px"
	 viewBox="0 0 26 26" style="enable-background:new 0 0 26 26;" xml:space="preserve">
<style type="text/css">
	.st0{fill:#00002D;}
</style>
<path class="st0" d="M18.9,13l5.9-5.9c1.6-1.6,1.6-4.3,0-5.9c-1.6-1.6-4.3-1.6-5.9,0L13,7.1L7.1,1.2c-1.6-1.6-4.3-1.6-5.9,0
	c-1.6,1.6-1.6,4.3,0,5.9L7.1,13l-5.9,5.9c-1.6,1.6-1.6,4.3,0,5.9c1.6,1.6,4.3,1.6,5.9,0l5.9-5.9l5.9,5.9c1.6,1.6,4.3,1.6,5.9,0
	c1.6-1.6,1.6-4.3,0-5.9L18.9,13z"/>
</svg>
