<svg viewBox="469 1040 26 26" fill="none" xmlns="http://www.w3.org/2000/svg">
  <path d="M487.148 1053.48L492.813 1047.82C494.376 1046.26 494.376 1043.72 492.813 1042.16C491.248 1040.59 488.712 1040.59 487.148 1042.16L481.484 1047.82L475.82 1042.16C474.257 1040.59 471.721 1040.59 470.156 1042.16C468.593 1043.72 468.593 1046.26 470.156 1047.82L475.82 1053.48L470.156 1059.15C468.593 1060.71 468.593 1063.25 470.156 1064.81C471.721 1066.38 474.257 1066.38 475.82 1064.81L481.484 1059.15L487.148 1064.81C488.712 1066.38 491.248 1066.38 492.813 1064.81C494.376 1063.25 494.376 1060.71 492.813 1059.15L487.148 1053.48Z" fill="#000000"/>
</svg>
