<svg xmlns="http://www.w3.org/2000/svg" viewBox="0 0 32 32">
  <path fill="#FFFFFF" d="M30.3,16.9c-1.4-1.5-3.5-1.9-4.3,0.8c1.9-1.3,3.9,1.7,2.2,3c-1.4,1.1-3.9,1.2-5.5,0.3c-2-1.1-3.4-2.4-4.5-4.2
  c3.6,0.9,7.6-0.1,9.1-2.9c4.1-7.7-4-12.8-7.3-7.8c-1.1,1.8-0.6,3.9,2.2,3.8c-1.9-1.4-0.1-4.1,1.7-2.9c1.5,1,1.4,3.3,0.6,4.9
  c-1,1.9-3.9,3.2-6.1,1.6c-2.2-4.1-0.6-10.4-6.9-12.4c-9.3-3-12.4,11.2-1.1,13.1l0,0c-1.9,0-3.5,0.5-5.9,1.7C-1.7,19-0.4,29,6,27.9
  c2.2-0.4,3.3-3.2,0.1-4.2c1.1,1.9-1.8,3-2.7,0.1c-0.7-2.3,1.3-4.8,3.3-5.4c1.9-0.6,3.5-0.7,5.3-0.4c-2.3,2.2-3.6,5.1-2.7,7.9
  c2.8,8.7,12.3,5.3,10.4-0.4c-0.7-2-2.6-3-4.3-0.6c2.2-0.6,3.2,2.5,1.2,3.2c-1.7,0.6-3.8-0.9-4.2-2.6c-0.5-2.4,1.3-4.9,3.5-6.1
  c1.4,2.3,2.5,3.1,5.3,4.6C26.6,26.8,34.7,21.6,30.3,16.9L30.3,16.9z"/>
</svg>
