<svg viewBox="154 1141 32 32" fill="none" xmlns="http://www.w3.org/2000/svg">
  <path d="M184.858 1143.56C185.397 1143.02 186.009 1142.55 186.009 1142C186.009 1141.45 185.562 1141 185.009 1141L175.009 1141C174.888 1141 174.009 1141 174.009 1142L174.009 1152C174.009 1152.55 174.457 1153 175.009 1153C175.562 1153 175.947 1152.47 176.373 1152.05L179.152 1149.27C180.922 1151.36 182 1154.05 182 1157C182 1163.63 176.627 1169 170 1169C163.373 1169 158 1163.63 158 1157C158 1151.06 162.327 1146.13 168 1145.18L168 1141.14C160.109 1142.12 154 1148.84 154 1157C154 1165.84 161.164 1173 170 1173C178.836 1173 186 1165.84 186 1157C186 1152.94 184.484 1149.25 181.993 1146.43L184.858 1143.56Z" fill="#000000"/>
</svg>
