<svg viewBox="0 0 32 32" fill="none" xmlns="http://www.w3.org/2000/svg">
  <path d="M28.858 1.56C29.397 1.02 30.009 0.55 30.009 0C30.009 -0.45 29.562 -1 29.009 -1L19.009 -1C18.888 -1 18.009 -1 18.009 0L18.009 10C18.009 10.55 18.457 11 19.009 11C19.562 11 19.947 10.47 20.373 10.05L23.152 7.27C24.922 9.36 26 12.05 26 15C26 21.63 20.627 27 14 27C7.373 27 2 21.63 2 15C2 9.06 6.327 4.13 12 3.18L12 -0.86C4.109 0.12 -2 6.84 -2 15C-2 23.84 5.164 31 14 31C22.836 31 30 23.84 30 15C30 10.94 28.484 7.25 25.993 4.43L28.858 1.56Z" fill="#FFFFFF"/>
</svg>
