<?xml version="1.0" encoding="utf-8"?>
<!-- Generator: Adobe Illustrator 21.1.0, SVG Export Plug-In . SVG Version: 6.00 Build 0)  -->
<svg version="1.1" id="Layer_1" xmlns="http://www.w3.org/2000/svg" xmlns:xlink="http://www.w3.org/1999/xlink" x="0px" y="0px"
	 viewBox="0 0 32 32" style="enable-background:new 0 0 32 32;" xml:space="preserve">
<style type="text/css">
	.st0{fill:#00002D;stroke:#00002D;stroke-miterlimit:10;}
</style>
<path class="st0" d="M30.2,3.2c0.5-0.5,1.1-1,1.1-1.5s-0.4-1-1-1h-9.5c-0.1,0-1,0-1,1v9.5c0,0.5,0.4,1,1,1c0.5,0,0.9-0.5,1.3-0.9
	l2.6-2.6c1.7,2,2.7,4.6,2.7,7.4c0,6.3-5.1,11.4-11.4,11.4S4.6,22.3,4.6,16c0-5.7,4.1-10.4,9.5-11.3V0.9C6.6,1.8,0.7,8.2,0.7,16
	c0,8.4,6.8,15.2,15.2,15.2S31.2,24.4,31.2,16c0-3.9-1.4-7.4-3.8-10.1L30.2,3.2z"/>
</svg>
