<?xml version="1.0" encoding="utf-8"?>
<!-- Generator: Adobe Illustrator 21.1.0, SVG Export Plug-In . SVG Version: 6.00 Build 0)  -->
<svg version="1.1" id="Layer_1" xmlns="http://www.w3.org/2000/svg" xmlns:xlink="http://www.w3.org/1999/xlink" x="0px" y="0px"
	 viewBox="0 0 32 32" style="enable-background:new 0 0 32 32;" xml:space="preserve">
<style type="text/css">
	.st0{fill:#00002D;}
</style>
<path class="st0" d="M18,5c0-0.6,0.4-1,1-1s1,0.4,1,1v4c0,0.6-0.4,1-1,1s-1-0.4-1-1V5z M9,12h14c0.6,0,1-0.4,1-1V0H8v11
	C8,11.6,8.4,12,9,12z M28,0h-2v12c0,1.1-0.9,2-2,2H8c-1.1,0-2-0.9-2-2V0H4C1.8,0,0,1.8,0,4v24c0,2.2,1.8,4,4,4h24c2.2,0,4-1.8,4-4V4
	C32,1.8,30.2,0,28,0z"/>
</svg>
