<svg viewBox="154 517 32 32" fill="none" xmlns="http://www.w3.org/2000/svg">
  <path d="M172 522C172 521.447 172.448 521 173 521C173.552 521 174 521.447 174 522L174 526C174 526.553 173.552 527 173 527C172.448 527 172 526.553 172 526L172 522ZM163 529L177 529C177.552 529 178 528.553 178 528L178 517L162 517L162 528C162 528.553 162.448 529 163 529ZM182 517L180 517L180 529C180 530.104 179.104 531 178 531L162 531C160.896 531 160 530.104 160 529L160 517L158 517C155.791 517 154 518.791 154 521L154 545C154 547.209 155.791 549 158 549L182 549C184.209 549 186 547.209 186 545L186 521C186 518.791 184.209 517 182 517Z" fill="#FFFFFF"/>
</svg>
