<svg viewBox="314 673 32 32" fill="none" xmlns="http://www.w3.org/2000/svg">
  <path d="M328 673H326C324.896 673 324 673.896 324 675V703C324 704.104 324.896 705 326 705H328C329.104 705 330 704.104 330 703V675C330 673.896 329.104 673 328 673ZM338 689H336C334.896 689 334 689.896 334 691V703C334 704.104 334.896 705 336 705H338C339.104 705 340 704.104 340 703V691C340 689.896 339.104 689 338 689ZM318 682H316C314.896 682 314 682.896 314 684V703C314 704.104 314.896 705 316 705H318C319.104 705 320 704.104 320 703V684C320 682.896 319.104 682 318 682Z" fill="#FFFFFF"/>
</svg>
