<svg viewBox="0 0 32 32" fill="none" xmlns="http://www.w3.org/2000/svg">
  <path d="M16 2C8.268 2 2 8.268 2 16C2 23.732 8.268 30 16 30C23.732 30 30 23.732 30 16C30 8.268 23.732 2 16 2ZM16 28C9.373 28 4 22.627 4 16C4 9.373 9.373 4 16 4C22.627 4 28 9.373 28 16C28 22.627 22.627 28 16 28Z" fill="#FFFFFF"/>
  <path d="M16 8C15.448 8 15 8.448 15 9V17C15 17.552 15.448 18 16 18C16.552 18 17 17.552 17 17V9C17 8.448 16.552 8 16 8Z" fill="#FFFFFF"/>
  <path d="M16 20C15.448 20 15 20.448 15 21V23C15 23.552 15.448 24 16 24C16.552 24 17 23.552 17 23V21C17 20.448 16.552 20 16 20Z" fill="#FFFFFF"/>
</svg>
