<?xml version="1.0" encoding="utf-8"?>
<!-- Generator: Adobe Illustrator 21.1.0, SVG Export Plug-In . SVG Version: 6.00 Build 0)  -->
<svg version="1.1" id="Layer_1" xmlns="http://www.w3.org/2000/svg" xmlns:xlink="http://www.w3.org/1999/xlink" x="0px" y="0px"
	 viewBox="0 0 32 32" style="enable-background:new 0 0 32 32;" xml:space="preserve">
<style type="text/css">
	.st0{fill:#FFFFFF;}
</style>
<path class="st0" d="M17,0h-2c-1.1,0-2,0.9-2,2v28c0,1.1,0.9,2,2,2h2c1.1,0,2-0.9,2-2V2C19,0.9,18.1,0,17,0z M27,16h-2
	c-1.1,0-2,0.9-2,2v12c0,1.1,0.9,2,2,2h2c1.1,0,2-0.9,2-2V18C29,16.9,28.1,16,27,16z M7,9H5c-1.1,0-2,0.9-2,2v19c0,1.1,0.9,2,2,2h2
	c1.1,0,2-0.9,2-2V11C9,9.9,8.1,9,7,9z"/>
</svg>
